<?xml version="1.0" encoding="utf-8"?>
<!-- Generator: Adobe Illustrator 26.0.1, SVG Export Plug-In . SVG Version: 6.00 Build 0)  -->
<svg version="1.1" id="Layer_1" xmlns:serif="http://www.serif.com/"
	 xmlns="http://www.w3.org/2000/svg" xmlns:xlink="http://www.w3.org/1999/xlink" x="0px" y="0px" viewBox="0 0 150 150"
	 style="enable-background:new 0 0 150 150;" xml:space="preserve">
<style type="text/css">
	.st0{fill:url(#SVGID_1_);}
	.st1{fill:url(#SVGID_00000011753542019039035420000015953368765912989364_);}
	.st2{fill:url(#SVGID_00000178915413373117029770000016111582884924913284_);}
</style>
<g>
	
		<linearGradient id="SVGID_1_" gradientUnits="userSpaceOnUse" x1="0.0591" y1="-0.0735" x2="0.9591" y2="-0.0735" gradientTransform="matrix(-43.8334 144.8145 -144.8145 -43.8334 88.1358 -7.9474)">
		<stop  offset="0" style="stop-color:#515BD4"/>
		<stop  offset="0.26" style="stop-color:#9510B8"/>
		<stop  offset="0.66" style="stop-color:#E51804"/>
		<stop  offset="1" style="stop-color:#FEDA77"/>
	</linearGradient>
	<path class="st0" d="M74.5,8C56.17,8,53.87,8.08,46.67,8.4c-7.18,0.32-12.09,1.47-16.39,3.14c-4.44,1.73-8.2,4.03-11.95,7.78
		s-6.06,7.52-7.78,11.95c-1.66,4.29-2.81,9.2-3.14,16.39C7.08,54.87,7,57.17,7,75.5s0.08,20.63,0.41,27.83
		c0.32,7.18,1.47,12.09,3.14,16.39c1.73,4.44,4.03,8.2,7.78,11.95c3.75,3.75,7.52,6.06,11.95,7.78c4.29,1.67,9.2,2.81,16.39,3.14
		c7.2,0.32,9.49,0.4,27.83,0.4s20.63-0.08,27.83-0.4c7.18-0.32,12.09-1.47,16.39-3.14c4.44-1.73,8.2-4.03,11.95-7.78
		c3.75-3.75,6.06-7.52,7.78-11.95c1.67-4.29,2.81-9.2,3.14-16.39c0.32-7.2,0.4-9.5,0.4-27.83s-0.08-20.63-0.4-27.83
		c-0.32-7.18-1.47-12.09-3.14-16.39c-1.73-4.44-4.03-8.2-7.78-11.95c-3.75-3.75-7.52-6.06-11.95-7.78
		c-4.29-1.66-9.2-2.81-16.39-3.14C95.13,8.08,92.83,8,74.5,8z M74.5,20.16c18.03,0,20.16,0.07,27.28,0.4
		c6.58,0.3,10.15,1.4,12.54,2.32c3.15,1.22,5.4,2.69,7.76,5.05s3.83,4.61,5.05,7.76c0.93,2.38,2.02,5.95,2.32,12.54
		c0.32,7.12,0.4,9.25,0.4,27.28s-0.07,20.16-0.4,27.28c-0.3,6.58-1.4,10.15-2.32,12.54c-1.22,3.15-2.69,5.4-5.05,7.76
		s-4.61,3.83-7.76,5.05c-2.38,0.93-5.95,2.02-12.54,2.32c-7.12,0.32-9.25,0.4-27.28,0.4s-20.16-0.07-27.28-0.4
		c-6.58-0.3-10.15-1.4-12.54-2.32c-3.15-1.22-5.4-2.69-7.76-5.05s-3.82-4.61-5.05-7.76c-0.93-2.38-2.02-5.95-2.32-12.54
		c-0.32-7.12-0.4-9.25-0.4-27.28s0.07-20.16,0.4-27.28c0.3-6.58,1.4-10.15,2.32-12.54c1.22-3.15,2.69-5.4,5.05-7.76
		s4.61-3.82,7.76-5.05c2.38-0.93,5.95-2.02,12.54-2.32C54.34,20.23,56.47,20.16,74.5,20.16z"/>
	
		<linearGradient id="SVGID_00000018229780502587188300000002724767153548267147_" gradientUnits="userSpaceOnUse" x1="0.0591" y1="-0.0735" x2="0.9591" y2="-0.0735" gradientTransform="matrix(-43.8334 144.8145 -144.8145 -43.8334 88.1358 -7.9474)">
		<stop  offset="0" style="stop-color:#515BD4"/>
		<stop  offset="0.26" style="stop-color:#9510B8"/>
		<stop  offset="0.66" style="stop-color:#E51804"/>
		<stop  offset="1" style="stop-color:#FFBF00"/>
	</linearGradient>
	<path style="fill:url(#SVGID_00000018229780502587188300000002724767153548267147_);" d="M74.5,98C62.07,98,52,87.93,52,75.5
		S62.07,53,74.5,53S97,63.07,97,75.5S86.93,98,74.5,98z M74.5,40.84c-19.14,0-34.66,15.52-34.66,34.66s15.52,34.66,34.66,34.66
		s34.66-15.52,34.66-34.66C109.16,56.36,93.64,40.84,74.5,40.84z"/>
	
		<linearGradient id="SVGID_00000061460025787886539030000016955402634207111589_" gradientUnits="userSpaceOnUse" x1="0.0591" y1="-0.2324" x2="0.9591" y2="-0.2324" gradientTransform="matrix(-43.8334 144.8145 -144.8145 -43.8334 88.1358 -7.9474)">
		<stop  offset="0" style="stop-color:#515BD4"/>
		<stop  offset="0.26" style="stop-color:#9510B8"/>
		<stop  offset="0.66" style="stop-color:#E51804"/>
		<stop  offset="1" style="stop-color:#FFBF00"/>
	</linearGradient>
	<path style="fill:url(#SVGID_00000061460025787886539030000016955402634207111589_);" d="M118.63,39.46c0,4.47-3.63,8.1-8.1,8.1
		s-8.1-3.63-8.1-8.1s3.63-8.1,8.1-8.1C115.01,31.36,118.63,34.99,118.63,39.46z"/>
</g>
</svg>
